<svg viewBox="0 0 512.004 512.004" xmlns="http://www.w3.org/2000/svg"><path d="M300.915 502.004H211.09c-11.046 0-20-8.954-20-20v-60h129.824v60c.001 11.046-8.954 20-19.999 20z" fill="#b8ecbc"/><path d="M317.002 422.004h-122c-11.046 0-20-8.954-20-20s8.954-20 20-20h122c11.046 0 20 8.954 20 20s-8.954 20-20 20zM415.925 169.927c0 53.507-26.276 100.877-66.633 129.916H162.713c-40.358-29.039-66.633-76.409-66.633-129.916 0-87.981 71.044-159.358 158.886-159.911.345-.011.691-.011 1.036-.011s.691 0 1.036.011c87.843.552 158.887 71.93 158.887 159.911z" fill="#fff2a0"/><path d="M335.969 169.927c0 53.507-13.138 100.888-33.322 129.916h-93.289c-20.185-29.028-33.322-76.409-33.322-129.916 0-87.635 35.257-158.805 78.931-159.911.345-.011.691-.011 1.036-.011s.691 0 1.036.011c43.674 1.105 78.93 72.275 78.93 159.911z" fill="#a0c8ff"/><g><path d="M412.973 202.277c-5.335-1.447-10.824 1.702-12.27 7.031-8.692 32.019-28.059 60.499-54.692 80.535h-25.708c16.437-31.443 25.667-73.991 25.667-119.916 0-43.862-8.566-85.354-24.122-116.835-4.528-9.162-9.529-17.219-14.911-24.115 44.954 16.319 80.763 53.67 93.765 101.567 1.447 5.329 6.942 8.475 12.271 7.031 5.33-1.447 8.478-6.941 7.03-12.271C400.117 52.054 333.189.551 257.224.017a43.257 43.257 0 00-2.443 0c-45.11.316-87.472 18.112-119.291 50.118-31.862 32.051-49.41 74.594-49.41 119.792 0 53.549 25.529 104.255 68.418 136.269l27.81 68.636c-10.212 4.791-17.305 15.167-17.305 27.173 0 11.523 6.534 21.543 16.088 26.567v53.433c0 16.542 13.458 30 30 30h89.824c16.542 0 30-13.458 30-30v-53.433c9.554-5.024 16.088-15.044 16.088-26.567 0-12.006-7.092-22.381-17.304-27.172l27.802-68.615c30.444-22.718 52.593-55.159 62.503-91.669 1.447-5.332-1.701-10.826-7.031-12.272zm-95.971 209.727h-122c-5.514 0-10-4.486-10-10s4.486-10 10-10h122c5.514 0 10 4.486 10 10s-4.486 10-10 10zm-73.729-40l-20.159-62.162h65.773l-20.155 62.162zm-41.185-62.161l20.159 62.162h-19.505l-25.187-62.162zm87.669 62.161l20.155-62.162h24.538l-25.187 62.162zm36.212-202.077c0 46.973-10.673 91.267-28.708 119.916h-82.517c-18.036-28.649-28.708-72.943-28.708-119.916 0-80.313 31.683-148.965 69.27-149.917.232-.008.463-.007.696-.006.213-.001.428-.001.642.005l.141.003c37.502.95 69.184 69.602 69.184 149.915zm-219.89 0c0-64.631 41.367-120.031 99.007-140.973-5.39 6.903-10.397 14.966-14.929 24.138-15.556 31.48-24.122 72.973-24.122 116.835 0 45.925 9.23 88.473 25.668 119.916h-25.709c-37.578-28.27-59.915-72.855-59.915-119.916zm194.835 322.077H211.09c-5.514 0-10-4.486-10-10v-50h109.824v50c0 5.514-4.486 10-10 10z"/><circle cx="415.925" cy="169.927" r="10"/></g></svg>